<svg width="18" height="13" xmlns="http://www.w3.org/2000/svg"><path d="M11.429 7.143a.282.282 0 0 0-.286-.286h-2V3.714a.294.294 0 0 0-.286-.285H7.143a.294.294 0 0 0-.286.285v3.143h-2a.288.288 0 0 0-.286.286.3.3 0 0 0 .08.205l3.144 3.143a.28.28 0 0 0 .205.08.298.298 0 0 0 .205-.08l3.134-3.134a.33.33 0 0 0 .09-.214zm5.714 2a3.43 3.43 0 0 1-3.429 3.428H4c-2.205 0-4-1.794-4-4a3.99 3.99 0 0 1 2.304-3.616A4.569 4.569 0 0 1 6.858 0a4.58 4.58 0 0 1 4.231 2.84 2.26 2.26 0 0 1 1.482-.554 2.29 2.29 0 0 1 2.286 2.285c0 .438-.125.867-.366 1.233a3.436 3.436 0 0 1 2.652 3.339z" fill="#FFF" fill-rule="evenodd"/></svg>